# xmcd
#
# Track frame offsets:
# 150
# 15026
# 29073
# 42692
# 59371
# 78487
# 96963
# 113203
# 126865
# 142946
# 161723
# 179805
# 194523
# 212956
# 225209
#
# Disc length: 3213 seconds
#
#
# Revision: 0
# Processed by: cddbd v1.5.1PL0 Copyright (c) Steve Scherf et al.
# Submitted via: FreeRIP 2.60 
#
DISCID=d40c8b0f
DTITLE=Jamie Richards - Between These Lines
DYEAR=2004
DGENRE=Texas Country
TTITLE0=They've Never Been To Texas
TTITLE1=Every Single Day
TTITLE2=Wasted
TTITLE3=Someday
TTITLE4=Last Call
TTITLE5=Between These Lines
TTITLE6=Love You Back To Texas
TTITLE7=The Devil In Me
TTITLE8=What I Wouldn't Give
TTITLE9=Tough
TTITLE10=Back In Oklahoma
TTITLE11=So Did I
TTITLE12=Under The Influence
TTITLE13=Last Time 'Til The Next Time
TTITLE14=Window Up Above
EXTD=
EXTT0=
EXTT1=
EXTT2=
EXTT3=
EXTT4=
EXTT5=
EXTT6=
EXTT7=
EXTT8=
EXTT9=
EXTT10=
EXTT11=
EXTT12=
EXTT13=
EXTT14=
PLAYORDER=
